<?xml version="1.0"?>
<svg width="276" height="298" xmlns="http://www.w3.org/2000/svg" xmlns:svg="http://www.w3.org/2000/svg" enable-background="new 0 0 500 500" version="1.1" xml:space="preserve">
 <g class="layer">
  <title>Layer 1</title>
  <g fill-opacity="0" id="BACKGROUND">
   <rect fill="#000000" height="297.92" id="svg_1" width="276.04" x="0" y="0"/>
  </g>
  <g id="OBJECTS">
   <g id="svg_2">
    <g id="svg_3">
     <linearGradient id="SVGID_1_" x1="0" x2="1" y1="0.5" y2="0.5">
      <stop offset="0" stop-color="#DC678E"/>
      <stop offset="0.01" stop-color="#D9658E"/>
      <stop offset="0.13" stop-color="#B04D92"/>
      <stop offset="0.25" stop-color="#923C96"/>
      <stop offset="0.34" stop-color="#803297"/>
      <stop offset="0.41" stop-color="#7A2E98"/>
      <stop offset="0.75" stop-color="#9A5599"/>
      <stop offset="1" stop-color="#AD6D99"/>
     </linearGradient>
     <path d="m97.38,290.14c-3.1,-0.57 -6.09,-1.77 -8.82,-3.5c-2.73,-1.75 -5.2,-4.03 -7.24,-6.75c-2.05,-2.73 -3.66,-5.9 -4.7,-9.43c0,0 -65.19,-220.83 -65.21,-220.9c-2.58,-8.73 1.03,-19.32 7.9,-26.15c-2.43,1.84 -6.66,5.52 -8.96,7.54c-1.13,0.99 -3.51,3.22 -4.61,5.27c-3.66,5.91 -4.25,13.29 -2.28,19.89l63.91,217.11c1.02,3.46 2.61,6.58 4.62,9.26c2,2.67 4.43,4.91 7.12,6.62c2.69,1.71 5.63,2.88 8.69,3.44c3.05,0.55 6.2,0.49 9.31,-0.28l9.71,-2.39c-3.15,0.77 -6.35,0.84 -9.44,0.27z" fill="url(#SVGID_1_)" id="svg_4"/>
     <g id="svg_5">
      <linearGradient id="SVGID_00000005982550112364542550000012570909802958209953_" x1="0" x2="1" y1="0.5" y2="0.5">
       <stop offset="0" stop-color="#E68A33"/>
       <stop offset="0.52" stop-color="#E166C8"/>
       <stop offset="0.58" stop-color="#D060C2"/>
       <stop offset="0.7" stop-color="#A44FB2"/>
       <stop offset="0.86" stop-color="#5E3498"/>
       <stop offset="1" stop-color="#1E1C80"/>
      </linearGradient>
      <path d="m112.09,3.87c13.11,-2.46 25.54,7.8 29.25,19.87c0,0 63.77,207.96 63.79,208.01c4.23,13.85 -0.95,27.6 -13.94,31.68l-83.01,26.06c-3.25,1.02 -6.57,1.26 -9.8,0.81c-3.23,-0.45 -6.37,-1.58 -9.23,-3.3c-2.87,-1.72 -5.46,-4.03 -7.61,-6.82c-2.15,-2.79 -3.85,-6.07 -4.93,-9.72c0,0 -65.19,-220.86 -65.2,-220.9c-3.73,-12.63 2.82,-27.37 16.53,-29.93c0.01,-0.01 84.15,-15.76 84.15,-15.76z" fill="url(#SVGID_00000005982550112364542550000012570909802958209953_)" id="svg_6"/>
     </g>
     <g id="svg_7">
      <linearGradient id="SVGID_00000181075148804595740230000007867127949173469589_" x1="0.79" x2="-0.11" y1="0.68" y2="0.12">
       <stop offset="0" stop-color="#E4D5FD"/>
       <stop offset="0.39" stop-color="#EFE7FE"/>
       <stop offset="1" stop-color="#FFFFFF"/>
      </linearGradient>
      <path d="m117.49,28.86c2.27,-0.44 4.58,-0.35 6.81,0.18c2.23,0.53 4.39,1.5 6.36,2.83c1.96,1.34 3.74,3.03 5.22,5.01c1.47,1.98 2.65,4.25 3.4,6.72l56.98,185.42c0.78,2.56 1.08,5.13 0.95,7.59c-0.14,2.47 -0.7,4.82 -1.64,6.95c-0.94,2.13 -2.25,4.02 -3.89,5.56c-1.65,1.54 -3.62,2.72 -5.85,3.41l-79.2,24.4c-2.41,0.74 -4.87,0.9 -7.26,0.56c-2.39,-0.34 -4.71,-1.19 -6.83,-2.47c-2.12,-1.28 -4.03,-3 -5.62,-5.06c-1.59,-2.07 -2.85,-4.49 -3.64,-7.19c0,0 -58.14,-196.15 -58.17,-196.22c-2.76,-9.33 2.07,-20.31 12.2,-22.26c0,0 79.39,-15.28 80.18,-15.43z" fill="url(#SVGID_00000181075148804595740230000007867127949173469589_)" id="svg_8"/>
     </g>
     <linearGradient id="SVGID_00000061437288848716486690000008701971609048136338_" x1="0.7" x2="0.1" y1="0.68" y2="0.13">
      <stop offset="0" stop-color="#E4D5FD"/>
      <stop offset="0.39" stop-color="#EFE7FE"/>
      <stop offset="1" stop-color="#FFFFFF"/>
     </linearGradient>
     <path d="m65.38,28.58c0,2.14 -1.73,3.88 -3.88,3.88c-2.14,0 -3.88,-1.74 -3.88,-3.88s1.74,-3.88 3.88,-3.88c2.15,-0.01 3.88,1.73 3.88,3.88z" fill="url(#SVGID_00000061437288848716486690000008701971609048136338_)" id="svg_9"/>
     <linearGradient id="SVGID_00000180343950312336583380000010749832234122630050_" x1="0.69" x2="0.13" y1="0.82" y2="-0.13">
      <stop offset="0" stop-color="#E4D5FD"/>
      <stop offset="0.39" stop-color="#EFE7FE"/>
      <stop offset="1" stop-color="#FFFFFF"/>
     </linearGradient>
     <path d="m97.4,24.69l-24.01,4.54c-1.76,0.34 -3.45,-0.82 -3.79,-2.58l0,0c-0.33,-1.76 0.83,-3.46 2.59,-3.79l24,-4.55c1.76,-0.33 3.46,0.83 3.79,2.59l0,0c0.33,1.76 -0.82,3.45 -2.58,3.79z" fill="url(#SVGID_00000180343950312336583380000010749832234122630050_)" id="svg_10"/>
    </g>
    <g id="svg_11">
     <path d="m88.14,135.13l17.25,111.56c0,0 21.27,8.51 44.08,5.11c22.81,-3.4 46.95,-11.9 46.95,-11.9l-108.28,-104.77z" fill="#F3E6FC" id="svg_12"/>
     <g id="svg_13">
      <g id="svg_14">
       <linearGradient id="SVGID_00000183229558481445811240000005689356568858948774_" x1="0" x2="1" y1="0.5" y2="0.5">
        <stop offset="0" stop-color="#E26F3C"/>
        <stop offset="1" stop-color="#EEB941"/>
       </linearGradient>
       <path d="m230.29,92.28c-0.09,0 -0.19,0 -0.29,-0.01c-2.15,-0.15 -3.77,-2.03 -3.61,-4.18c0.03,-0.37 2.54,-37.15 -12.1,-53.77c-4.3,-4.89 -9.56,-7.44 -16.06,-7.79c-7.27,-0.38 -13.15,1.68 -18.03,6.31c-13.78,13.05 -13.95,41.46 -13.95,41.74c0,2.16 -1.75,3.91 -3.91,3.91c0,0 0,0 0,0c-2.16,0 -3.91,-1.75 -3.91,-3.91c0,-1.3 0.2,-32.07 16.39,-47.42c6.43,-6.1 14.44,-8.93 23.83,-8.43c8.59,0.45 15.83,3.97 21.52,10.43c16.81,19.1 14.14,57.86 14.02,59.5c-0.15,2.06 -1.87,3.62 -3.9,3.62z" fill="url(#SVGID_00000183229558481445811240000005689356568858948774_)" id="svg_15"/>
      </g>
      <linearGradient id="SVGID_00000143582387408436118850000005114537225584626088_" x1="0" x2="1" y1="0.5" y2="0.5">
       <stop offset="0" stop-color="#E16484"/>
       <stop offset="1" stop-color="#76294B"/>
      </linearGradient>
      <polygon fill="url(#SVGID_00000143582387408436118850000005114537225584626088_)" id="svg_16" points="253.30365753173828,58.30199432373047 139.00366973876953,50.982994079589844 100.99266815185547,57.91499328613281 224.20465850830078,72.24698638916016 "/>
      <linearGradient id="SVGID_00000154405385395486545690000012912203876870969743_" x1="0.22" x2="0.98" y1="0.75" y2="0.16">
       <stop offset="0" stop-color="#CA7819"/>
       <stop offset="0.36" stop-color="#DA9330"/>
       <stop offset="0.75" stop-color="#E7AA44"/>
       <stop offset="1" stop-color="#ECB24B"/>
      </linearGradient>
      <path d="m100.99,57.92l-12.85,77.21l35.66,89.39c0,0 26.95,18.3 112.31,15.76l-11.91,-173.57l-123.21,-8.79z" fill="url(#SVGID_00000154405385395486545690000012912203876870969743_)" id="svg_17"/>
      <linearGradient id="SVGID_00000100384201809264836000000001042609483286889896_" x1="-0.36" x2="1.09" y1="0.28" y2="0.69">
       <stop offset="0" stop-color="#E1612E"/>
       <stop offset="1" stop-color="#BA4752"/>
      </linearGradient>
      <polygon fill="url(#SVGID_00000100384201809264836000000001042609483286889896_)" id="svg_18" points="224.20465850830078,66.70899200439453 253.30365753173828,58.30199432373047 272.45865631103516,229.26998138427734 236.10965728759766,240.28398895263672 "/>
      <g id="svg_19">
       <linearGradient id="SVGID_00000044175574193251430630000006200832188311657878_" x1="0" x2="1" y1="0.5" y2="0.5">
        <stop offset="0" stop-color="#E1612E"/>
        <stop offset="1" stop-color="#BA4752"/>
       </linearGradient>
       <circle cx="124.04" cy="84.88" fill="url(#SVGID_00000044175574193251430630000006200832188311657878_)" id="svg_20" r="8.26"/>
       <linearGradient id="SVGID_00000085947632640055265910000014702627502726487181_" x1="0" x2="1" y1="0.5" y2="0.5">
        <stop offset="0" stop-color="#E1612E"/>
        <stop offset="1" stop-color="#BA4752"/>
       </linearGradient>
       <path d="m210.49,93.14c0,4.56 -3.7,8.26 -8.26,8.26c-4.56,0 -8.26,-3.7 -8.26,-8.26c0,-4.56 3.7,-8.26 8.26,-8.26c4.56,0 8.26,3.7 8.26,8.26z" fill="url(#SVGID_00000085947632640055265910000014702627502726487181_)" id="svg_21"/>
      </g>
      <g id="svg_22">
       <linearGradient id="SVGID_00000068655021205798090600000015588346226699019955_" x1="0" x2="1" y1="0.5" y2="0.5">
        <stop offset="0" stop-color="#F1CA47"/>
        <stop offset="1" stop-color="#EEB941"/>
       </linearGradient>
       <path d="m202.41,97.95c-2.15,0 -3.9,-1.74 -3.91,-3.9c0,-0.66 -0.67,-66.51 -35.52,-67.56c-0.26,-0.01 -0.52,-0.01 -0.77,-0.01c-31.39,0 -34.49,58.21 -34.51,58.8c-0.1,2.16 -1.97,3.83 -4.09,3.73c-2.16,-0.11 -3.83,-1.94 -3.73,-4.09c0.04,-0.68 0.84,-16.64 6.24,-32.73c7.52,-22.43 20.34,-34 37.1,-33.52c17.86,0.54 30.98,14.03 37.95,39.03c5.03,18.02 5.15,35.59 5.15,36.33c0.01,2.15 -1.74,3.91 -3.9,3.92c0,0 -0.01,0 -0.01,0z" fill="url(#SVGID_00000068655021205798090600000015588346226699019955_)" id="svg_23"/>
      </g>
     </g>
    </g>
   </g>
  </g>
 </g>
</svg>